<mxfile host="Electron" modified="2023-10-26T11:41:39.878Z" agent="Mozilla/5.0 (Windows NT 10.0; Win64; x64) AppleWebKit/537.36 (KHTML, like Gecko) draw.io/22.0.2 Chrome/114.0.5735.289 Electron/25.8.4 Safari/537.36" etag="q36riXWeYt5TMncvBrtb" version="22.0.2" type="device">
  <diagram name="Page-1" id="dnj-oDGWYQdqQQfftYUs">
    <mxGraphModel dx="1062" dy="619" grid="1" gridSize="10" guides="1" tooltips="1" connect="1" arrows="1" fold="1" page="1" pageScale="1" pageWidth="827" pageHeight="1169" math="0" shadow="0">
      <root>
        <mxCell id="0" />
        <mxCell id="1" parent="0" />
        <mxCell id="_c_8cGtMSHf-9uOprefp-1" value="" style="rounded=1;whiteSpace=wrap;html=1;fillColor=none;arcSize=13;strokeColor=#FF8000;strokeWidth=2;" vertex="1" parent="1">
          <mxGeometry x="150" y="180" width="590" height="300" as="geometry" />
        </mxCell>
        <mxCell id="_c_8cGtMSHf-9uOprefp-2" value="" style="rounded=1;whiteSpace=wrap;html=1;fillColor=none;arcSize=14;strokeWidth=2;strokeColor=#FF8000;" vertex="1" parent="1">
          <mxGeometry x="240" y="220" width="490" height="250" as="geometry" />
        </mxCell>
        <mxCell id="_c_8cGtMSHf-9uOprefp-13" value="" style="rounded=1;whiteSpace=wrap;html=1;fillColor=none;strokeColor=#FF8000;strokeWidth=2;" vertex="1" parent="1">
          <mxGeometry x="280" y="270" width="210" height="190" as="geometry" />
        </mxCell>
        <mxCell id="_c_8cGtMSHf-9uOprefp-3" value="" style="rounded=1;whiteSpace=wrap;html=1;fillColor=none;strokeColor=#FF8000;strokeWidth=2;" vertex="1" parent="1">
          <mxGeometry x="500" y="270" width="220" height="190" as="geometry" />
        </mxCell>
        <mxCell id="_c_8cGtMSHf-9uOprefp-11" value="&lt;font style=&quot;font-size: 11px;&quot;&gt;Amazon DynamoDB (Table)&lt;/font&gt;" style="sketch=0;outlineConnect=0;fontColor=#232F3E;gradientColor=none;strokeColor=#ffffff;fillColor=#232F3E;dashed=0;verticalLabelPosition=middle;verticalAlign=bottom;align=center;html=1;whiteSpace=wrap;fontSize=10;fontStyle=0;spacing=3;shape=mxgraph.aws4.productIcon;prIcon=mxgraph.aws4.dynamodb;" vertex="1" parent="1">
          <mxGeometry x="620" y="323" width="80" height="124" as="geometry" />
        </mxCell>
        <mxCell id="_c_8cGtMSHf-9uOprefp-5" value="&lt;font style=&quot;font-size: 11px;&quot;&gt;Amazon SQS (queue)&lt;/font&gt;" style="sketch=0;outlineConnect=0;fontColor=#232F3E;gradientColor=none;strokeColor=#ffffff;fillColor=#232F3E;dashed=0;verticalLabelPosition=middle;verticalAlign=bottom;align=center;html=1;whiteSpace=wrap;fontSize=10;fontStyle=0;spacing=3;shape=mxgraph.aws4.productIcon;prIcon=mxgraph.aws4.sqs;" vertex="1" parent="1">
          <mxGeometry x="300" y="330" width="80" height="110" as="geometry" />
        </mxCell>
        <mxCell id="_c_8cGtMSHf-9uOprefp-6" value="AWS Lambda (Function)" style="sketch=0;outlineConnect=0;fontColor=#232F3E;gradientColor=none;strokeColor=#ffffff;fillColor=#232F3E;dashed=0;verticalLabelPosition=middle;verticalAlign=bottom;align=center;html=1;whiteSpace=wrap;fontSize=11;fontStyle=0;spacing=3;shape=mxgraph.aws4.productIcon;prIcon=mxgraph.aws4.lambda;" vertex="1" parent="1">
          <mxGeometry x="390" y="330" width="80" height="110" as="geometry" />
        </mxCell>
        <mxCell id="_c_8cGtMSHf-9uOprefp-7" value="Construct" style="text;html=1;strokeColor=none;fillColor=none;align=center;verticalAlign=middle;whiteSpace=wrap;rounded=0;fontStyle=1;fontSize=14;" vertex="1" parent="1">
          <mxGeometry x="300" y="275" width="60" height="30" as="geometry" />
        </mxCell>
        <mxCell id="_c_8cGtMSHf-9uOprefp-8" value="" style="curved=1;endArrow=classic;html=1;rounded=0;fillColor=#e1d5e7;strokeColor=#9673a6;strokeWidth=2;" edge="1" parent="1">
          <mxGeometry width="50" height="50" relative="1" as="geometry">
            <mxPoint x="340" y="330" as="sourcePoint" />
            <mxPoint x="430" y="330" as="targetPoint" />
            <Array as="points">
              <mxPoint x="360" y="310" />
              <mxPoint x="410" y="310" />
            </Array>
          </mxGeometry>
        </mxCell>
        <mxCell id="_c_8cGtMSHf-9uOprefp-9" value="&lt;font style=&quot;font-size: 11px;&quot;&gt;Amazon S3 (Bucket)&lt;/font&gt;" style="sketch=0;outlineConnect=0;fontColor=#232F3E;gradientColor=none;strokeColor=#ffffff;fillColor=#232F3E;dashed=0;verticalLabelPosition=middle;verticalAlign=bottom;align=center;html=1;whiteSpace=wrap;fontSize=10;fontStyle=0;spacing=3;shape=mxgraph.aws4.productIcon;prIcon=mxgraph.aws4.s3;" vertex="1" parent="1">
          <mxGeometry x="516" y="330" width="80" height="110" as="geometry" />
        </mxCell>
        <mxCell id="_c_8cGtMSHf-9uOprefp-10" value="&lt;font style=&quot;font-size: 11px;&quot;&gt;Amazon DynamoDB (Table)&lt;/font&gt;" style="sketch=0;outlineConnect=0;fontColor=#232F3E;gradientColor=none;strokeColor=#ffffff;fillColor=#232F3E;dashed=0;verticalLabelPosition=middle;verticalAlign=bottom;align=center;html=1;whiteSpace=wrap;fontSize=10;fontStyle=0;spacing=3;shape=mxgraph.aws4.productIcon;prIcon=mxgraph.aws4.dynamodb;" vertex="1" parent="1">
          <mxGeometry x="610" y="330" width="80" height="124" as="geometry" />
        </mxCell>
        <mxCell id="_c_8cGtMSHf-9uOprefp-12" value="Construct" style="text;html=1;strokeColor=none;fillColor=none;align=center;verticalAlign=middle;whiteSpace=wrap;rounded=0;fontStyle=1;fontSize=14;" vertex="1" parent="1">
          <mxGeometry x="516" y="275" width="60" height="30" as="geometry" />
        </mxCell>
        <mxCell id="_c_8cGtMSHf-9uOprefp-14" value="" style="curved=1;endArrow=classic;html=1;rounded=0;fillColor=#e1d5e7;strokeColor=#9673a6;strokeWidth=2;" edge="1" parent="1">
          <mxGeometry width="50" height="50" relative="1" as="geometry">
            <mxPoint x="380" y="270" as="sourcePoint" />
            <mxPoint x="610" y="270" as="targetPoint" />
            <Array as="points">
              <mxPoint x="410" y="240" />
              <mxPoint x="580" y="240" />
            </Array>
          </mxGeometry>
        </mxCell>
        <mxCell id="_c_8cGtMSHf-9uOprefp-15" value="Stack(s)" style="text;html=1;strokeColor=none;fillColor=none;align=center;verticalAlign=middle;whiteSpace=wrap;rounded=0;fontStyle=1;fontSize=14;" vertex="1" parent="1">
          <mxGeometry x="260" y="230" width="60" height="30" as="geometry" />
        </mxCell>
        <mxCell id="_c_8cGtMSHf-9uOprefp-16" value="App" style="text;html=1;strokeColor=none;fillColor=none;align=center;verticalAlign=middle;whiteSpace=wrap;rounded=0;fontStyle=1;fontSize=14;" vertex="1" parent="1">
          <mxGeometry x="160" y="190" width="60" height="30" as="geometry" />
        </mxCell>
        <mxCell id="_c_8cGtMSHf-9uOprefp-17" value="TypeScript&lt;br style=&quot;font-size: 11px;&quot;&gt;JavaScript&lt;br style=&quot;font-size: 11px;&quot;&gt;Python&lt;br style=&quot;font-size: 11px;&quot;&gt;Java&lt;br style=&quot;font-size: 11px;&quot;&gt;&lt;div style=&quot;font-size: 11px;&quot;&gt;&lt;span style=&quot;background-color: initial; font-size: 11px;&quot;&gt;C#/.NET&lt;/span&gt;&lt;/div&gt;" style="text;html=1;strokeColor=none;fillColor=none;align=left;verticalAlign=middle;whiteSpace=wrap;rounded=0;fontStyle=0;fontSize=11;" vertex="1" parent="1">
          <mxGeometry x="160" y="374" width="60" height="80" as="geometry" />
        </mxCell>
        <mxCell id="_c_8cGtMSHf-9uOprefp-18" value="" style="image;aspect=fixed;html=1;points=[];align=center;fontSize=12;image=img/lib/azure2/general/File.svg;" vertex="1" parent="1">
          <mxGeometry x="329.53" y="499" width="60.47" height="74.5" as="geometry" />
        </mxCell>
        <mxCell id="_c_8cGtMSHf-9uOprefp-22" value="" style="sketch=0;points=[[0,0,0],[0.25,0,0],[0.5,0,0],[0.75,0,0],[1,0,0],[0,1,0],[0.25,1,0],[0.5,1,0],[0.75,1,0],[1,1,0],[0,0.25,0],[0,0.5,0],[0,0.75,0],[1,0.25,0],[1,0.5,0],[1,0.75,0]];outlineConnect=0;fillColor=none;strokeColor=#9673a6;dashed=0;verticalLabelPosition=bottom;verticalAlign=top;align=center;html=1;fontSize=12;fontStyle=0;aspect=fixed;shape=mxgraph.aws4.resourceIcon;resIcon=mxgraph.aws4.cloud_development_kit;" vertex="1" parent="1">
          <mxGeometry x="652" y="495.5" width="78" height="78" as="geometry" />
        </mxCell>
        <mxCell id="_c_8cGtMSHf-9uOprefp-24" value="" style="curved=1;endArrow=classic;html=1;rounded=0;fillColor=#e1d5e7;strokeColor=#9673a6;exitX=0.072;exitY=1.004;exitDx=0;exitDy=0;exitPerimeter=0;entryX=-0.025;entryY=0.485;entryDx=0;entryDy=0;entryPerimeter=0;strokeWidth=2;" edge="1" parent="1" source="_c_8cGtMSHf-9uOprefp-2" target="_c_8cGtMSHf-9uOprefp-18">
          <mxGeometry width="50" height="50" relative="1" as="geometry">
            <mxPoint x="220" y="524.5" as="sourcePoint" />
            <mxPoint x="310" y="524.5" as="targetPoint" />
            <Array as="points">
              <mxPoint x="275" y="530" />
            </Array>
          </mxGeometry>
        </mxCell>
        <mxCell id="_c_8cGtMSHf-9uOprefp-25" value="CloudFormation template" style="text;html=1;strokeColor=none;fillColor=none;align=right;verticalAlign=middle;whiteSpace=wrap;rounded=0;fontStyle=0;fontSize=11;" vertex="1" parent="1">
          <mxGeometry x="230" y="555" width="90" height="30" as="geometry" />
        </mxCell>
        <mxCell id="_c_8cGtMSHf-9uOprefp-26" value="" style="curved=1;endArrow=classic;html=1;rounded=0;fillColor=#e1d5e7;strokeColor=#9673a6;" edge="1" parent="1" source="_c_8cGtMSHf-9uOprefp-19">
          <mxGeometry width="50" height="50" relative="1" as="geometry">
            <mxPoint x="392" y="544" as="sourcePoint" />
            <mxPoint x="539" y="544" as="targetPoint" />
            <Array as="points" />
          </mxGeometry>
        </mxCell>
        <mxCell id="_c_8cGtMSHf-9uOprefp-28" value="" style="curved=1;endArrow=classic;html=1;rounded=0;fillColor=#e1d5e7;strokeColor=#9673a6;strokeWidth=2;" edge="1" parent="1">
          <mxGeometry width="50" height="50" relative="1" as="geometry">
            <mxPoint x="392" y="535" as="sourcePoint" />
            <mxPoint x="480" y="535" as="targetPoint" />
            <Array as="points" />
          </mxGeometry>
        </mxCell>
        <mxCell id="_c_8cGtMSHf-9uOprefp-19" value="&lt;font style=&quot;font-size: 11px;&quot;&gt;AWS CloudFormation&lt;/font&gt;" style="sketch=0;outlineConnect=0;fontColor=#232F3E;gradientColor=none;strokeColor=#ffffff;fillColor=#232F3E;dashed=0;verticalLabelPosition=middle;verticalAlign=bottom;align=center;html=1;whiteSpace=wrap;fontSize=10;fontStyle=0;spacing=3;shape=mxgraph.aws4.productIcon;prIcon=mxgraph.aws4.cloudformation;" vertex="1" parent="1">
          <mxGeometry x="480" y="495.5" width="80" height="110" as="geometry" />
        </mxCell>
        <mxCell id="_c_8cGtMSHf-9uOprefp-29" value="" style="curved=1;endArrow=classic;html=1;rounded=0;fillColor=#e1d5e7;strokeColor=#9673a6;strokeWidth=2;" edge="1" parent="1">
          <mxGeometry width="50" height="50" relative="1" as="geometry">
            <mxPoint x="566" y="535" as="sourcePoint" />
            <mxPoint x="654" y="535" as="targetPoint" />
            <Array as="points" />
          </mxGeometry>
        </mxCell>
        <mxCell id="_c_8cGtMSHf-9uOprefp-30" value="Resources" style="text;html=1;strokeColor=none;fillColor=none;align=center;verticalAlign=middle;whiteSpace=wrap;rounded=0;fontStyle=0;fontSize=11;" vertex="1" parent="1">
          <mxGeometry x="663.5" y="560" width="55" height="30" as="geometry" />
        </mxCell>
      </root>
    </mxGraphModel>
  </diagram>
</mxfile>
